<svg viewBox="0 0 64 64">
<g *ngIf="alien.type.toLowerCase()==='octopus'" attr.transform="translate({{alien.flipped < 0 ? 64 : 0}}, 0) scale({{alien.flipped}}, 1)">
<path d="m41 36h-18a11 11 0 0 0 -11 11v11a3.1 3.1 0 0 0 3 3 2.868 2.868 0 0 0 3-3v-6a3 3 0 0 0 6 0v3.9a5.1 5.1 0 0 0 5.1 5.1h3.9a2.813 2.813 0 0 0 3-3 2.921 2.921 0 0 0 -3-3h-3v-1a5 5 0 0 1 5-5 5 5 0 0 1 5 5v4a3.1 3.1 0 0 0 3 3 2.868 2.868 0 0 0 3-3v-2a3 3 0 0 0 3.161 3 3.114 3.114 0 0 0 2.839-3.17v-8.83a11 11 0 0 0 -11-11z" fill="#c8d952"/>
<path d="m32 7.016a14.252 14.252 0 0 0 -14 13.984v10a5 5 0 0 0 5 5 7.233 7.233 0 0 1 5 2 6.826 6.826 0 0 1 2 4.828v1.065a2.075 2.075 0 0 0 1.664 2.08 2 2 0 0 0 2.336-1.973v-1.172a6.826 6.826 0 0 1 2-4.828 7.233 7.233 0 0 1 5-2 5 5 0 0 0 5-5v-10a13.674 13.674 0 0 0 -14-13.984z" fill="#8ec13f"/>
<path d="m39 16s-3 4-7 4-7-4-7-4 3-4 7-4 7 4 7 4z" fill="#f4f4e6"/>
<path d="m39 28s-3 4-7 4-7-4-7-4 3-4 7-4 7 4 7 4z" fill="#f4f4e6"/>
<path d="m32 21c4.449 0 7.665-4.221 7.8-4.4a1 1 0 0 0 0-1.2c-.135-.179-3.351-4.4-7.8-4.4s-7.665 4.221-7.8 4.4a1 1 0 0 0 0 1.2c.135.179 3.351 4.4 7.8 4.4zm0-8c2.561 0 4.729 1.975 5.683 3-.954 1.025-3.122 3-5.683 3s-4.729-1.975-5.683-3c.954-1.025 3.122-3 5.683-3z"/>
<path d="m31 15h2v2h-2z"/>
<path d="m32 23c-4.449 0-7.665 4.221-7.8 4.4a1 1 0 0 0 0 1.2c.135.179 3.351 4.4 7.8 4.4s7.665-4.221 7.8-4.4a1 1 0 0 0 0-1.2c-.135-.179-3.351-4.4-7.8-4.4zm0 8c-2.561 0-4.729-1.975-5.683-3 .954-1.025 3.122-3 5.683-3s4.729 1.975 5.683 3c-.954 1.025-3.122 3-5.683 3z"/>
<path d="m31 27h2v2h-2z"/>
<path d="m42.948 62h.21a3.742 3.742 0 0 0 2.6-1.027 3.969 3.969 0 0 0 1.027-1.64 3.924 3.924 0 0 0 2.43.667 4.149 4.149 0 0 0 3.785-4.17v-8.83a12.013 12.013 0 0 0 -8.189-11.369 5.991 5.991 0 0 0 2.189-4.631v-10a14.962 14.962 0 0 0 -4.31-10.7 14.312 14.312 0 0 0 -3.69-2.658v-3.642h-2v2.821a15.593 15.593 0 0 0 -4-.76v-4.061h-2v4.07a14.576 14.576 0 0 0 -4 .863v-2.933h-2v3.825a15.173 15.173 0 0 0 -8 13.175v10a5.991 5.991 0 0 0 2.189 4.631 12.013 12.013 0 0 0 -8.189 11.369v11a4.092 4.092 0 0 0 3.948 4 3.8 3.8 0 0 0 2.812-1.022 4.105 4.105 0 0 0 1.24-2.978v-2.537a4.16 4.16 0 0 0 4 0v.437a6.106 6.106 0 0 0 6.1 6.1h3.9a3.829 3.829 0 0 0 4-4.006 3.924 3.924 0 0 0 -4-3.994h-2a4 4 0 1 1 8 0v4a4.092 4.092 0 0 0 3.948 4zm-23.948-31v-10a13.186 13.186 0 0 1 13-12.984h.028a12.673 12.673 0 0 1 12.972 12.984v10a4 4 0 0 1 -4 4 8.209 8.209 0 0 0 -5.707 2.293 7.772 7.772 0 0 0 -2.293 5.535v1.172a1 1 0 0 1 -1.175.985 1.083 1.083 0 0 1 -.825-1.092v-1.065a7.772 7.772 0 0 0 -2.293-5.535 8.209 8.209 0 0 0 -5.707-2.293 4 4 0 0 1 -4-4zm16 17a6.006 6.006 0 0 0 -6 6v1a1 1 0 0 0 1 1h3a1.922 1.922 0 0 1 2 2 1.834 1.834 0 0 1 -2 2h-3.9a4.1 4.1 0 0 1 -4.1-4.1v-10.9h-2v7a2 2 0 0 1 -4 0v-5a4 4 0 0 1 4-4v-2a6.006 6.006 0 0 0 -6 6v11a2.1 2.1 0 0 1 -.617 1.525 1.8 1.8 0 0 1 -1.328.475 2.119 2.119 0 0 1 -2.055-2v-11a10.011 10.011 0 0 1 10-10 6.255 6.255 0 0 1 4.293 1.707 5.789 5.789 0 0 1 1.707 4.121v1.065a3.084 3.084 0 0 0 2.5 3.067 3.152 3.152 0 0 0 .5.04 3 3 0 0 0 3-3v-1.172a5.789 5.789 0 0 1 1.707-4.121 6.255 6.255 0 0 1 4.293-1.707 10.011 10.011 0 0 1 10 10v8.83a2.126 2.126 0 0 1 -1.892 2.17 2 2 0 0 1 -2.108-2v-7a9.01 9.01 0 0 0 -9-9v2a7.008 7.008 0 0 1 7 7v9a2.1 2.1 0 0 1 -.617 1.525 1.813 1.813 0 0 1 -1.328.475 2.119 2.119 0 0 1 -2.055-2v-4a5.985 5.985 0 0 0 -6-6z"/>
<path d="m21 31h2v2h-2z"/>
<path d="m41 20h2v2h-2z"/>
<path d="m23 21h2v2h-2z"/>
<path d="m24 39h2v2h-2z"/>
<path d="m27 47h2v2h-2z"/>
<path d="m38 45h2v2h-2z"/>
</g>

<g *ngIf="alien.type.toLowerCase()==='tongue'" attr.transform="translate({{alien.flipped < 0 ? 64 : 0}}, 0) scale({{alien.flipped}}, 1)">
<path d="m5 19h5a0 0 0 0 1 0 0v4a0 0 0 0 1 0 0h-5a2 2 0 0 1 -2-2 2 2 0 0 1 2-2z"/>
<path d="m5 27h5a0 0 0 0 1 0 0v4a0 0 0 0 1 0 0h-5a2 2 0 0 1 -2-2 2 2 0 0 1 2-2z"/>
<path d="m3 8a2 2 0 0 0 2 2h5v5h4v-6a3 3 0 0 0 -3-3h-6a2 2 0 0 0 -2 2z"/>
<path d="m20 3a2 2 0 0 1 2 2v10a0 0 0 0 1 0 0h-4a0 0 0 0 1 0 0v-10a2 2 0 0 1 2-2z"/>
<path d="m30 18.8v-8.8a2 2 0 0 0 -4 0v5.749a9.367 9.367 0 0 1 4 3.051z"/>
<path d="m36 49h-7a5.213 5.213 0 0 1 -5-5v-1h16v1c0 2.606-1.394 5-4 5z"/>
<path d="m44 56a1 1 0 0 1 -1 1 7 7 0 0 1 -7-7v-1h-7c0 6.627 6.373 12 13 12h2a4 4 0 0 0 4-4 3 3 0 0 1 3-3h3a3 3 0 0 1 3 3 4 4 0 0 0 4 4v-5a6 6 0 0 0 -6-6h-5a6 6 0 0 0 -6 6z" fill="#f98c96"/>
<path d="m56 19h5a0 0 0 0 1 0 0v4a0 0 0 0 1 0 0h-5a2 2 0 0 1 -2-2 2 2 0 0 1 2-2z" fill="#b11e48" transform="matrix(-1 0 0 -1 115 42)"/>
<path d="m56 27h5a0 0 0 0 1 0 0v4a0 0 0 0 1 0 0h-5a2 2 0 0 1 -2-2 2 2 0 0 1 2-2z" fill="#b11e48" transform="matrix(-1 0 0 -1 115 58)"/>
<path d="m61 8a2 2 0 0 1 -2 2h-5v5h-4v-6a3 3 0 0 1 3-3h6a2 2 0 0 1 2 2z" fill="#b11e48"/>
<path d="m42 3h4a0 0 0 0 1 0 0v10a2 2 0 0 1 -2 2 2 2 0 0 1 -2-2v-10a0 0 0 0 1 0 0z" fill="#b11e48" transform="matrix(-1 0 0 -1 88 18)"/>
<path d="m34 18.8v-8.8a2 2 0 0 1 4 0v5.749a9.367 9.367 0 0 0 -4 3.051z" fill="#b11e48"/>
<path d="m42 15a9.708 9.708 0 0 0 -10 10 9.686 9.686 0 0 0 -10-10h-12v16h4a6.738 6.738 0 0 1 7 7v2a3 3 0 0 0 3 3h16a3 3 0 0 0 3-3v-2a6.738 6.738 0 0 1 7-7h4v-16z" fill="#e33e5c"/>
<path d="m32 29a6.962 6.962 0 0 0 -3 .683v9.317h6v-9.317a6.962 6.962 0 0 0 -3-.683z" fill="#e33e5c"/>
<path d="m32 29a7 7 0 0 1 7 7 3 3 0 0 1 -3 3h-8a3 3 0 0 1 -3-3 7 7 0 0 1 7-7z" fill="#f98c96"/>
<path d="m55 11h4a3 3 0 0 0 0-6h-6a4 4 0 0 0 -4 4v5h-2v-9a3 3 0 0 0 -6 0v9.045a11.6 11.6 0 0 0 -2 .342v-4.387a3 3 0 0 0 -6 0v8.523a10.557 10.557 0 0 0 -.981 1.694 10.434 10.434 0 0 0 -1.019-1.781v-8.436a3 3 0 0 0 -6 0v4.372a11.842 11.842 0 0 0 -2-.329v-9.043a3 3 0 0 0 -6 0v9h-2v-5a4 4 0 0 0 -4-4h-6a3 3 0 0 0 0 6h4v7h-4a3 3 0 0 0 0 6h4v2h-4a3 3 0 0 0 0 6h9a5.741 5.741 0 0 1 6 6v2a4 4 0 0 0 3 3.858v.142a6.277 6.277 0 0 0 5.053 5.907c.54 6.538 6.817 12.093 13.947 12.093h2a5.006 5.006 0 0 0 5-5 2 2 0 0 1 2-2h3a2 2 0 0 1 2 2 5.006 5.006 0 0 0 5 5 1 1 0 0 0 1-1v-5a7.009 7.009 0 0 0 -7-7h-5a7.009 7.009 0 0 0 -7 7 6.006 6.006 0 0 1 -6-6v-.107c2.368-.511 4-2.831 4-5.893v-.142a4 4 0 0 0 3-3.858v-2a5.741 5.741 0 0 1 6-6h9a3 3 0 0 0 0-6h-4v-2h4a3 3 0 0 0 0-6h-4zm-46 19h-4a1 1 0 0 1 0-2h4zm0-8h-4a1 1 0 0 1 0-2h4zm34-17a1 1 0 0 1 2 0v9h-2zm-8 5a1 1 0 0 1 2 0v5.128a10.618 10.618 0 0 0 -2 1.265zm-8 0a1 1 0 0 1 2 0v6.327a10.343 10.343 0 0 0 -2-1.239zm-8-5a1 1 0 0 1 2 0v9h-2zm-9 4h-5a1 1 0 0 1 0-2h6a2 2 0 0 1 2 2v5h-2v-4a1 1 0 0 0 -1-1zm33 49a2 2 0 0 0 2-2 5.006 5.006 0 0 1 5-5h5a5.006 5.006 0 0 1 5 5v3.829a3.006 3.006 0 0 1 -2-2.829 4 4 0 0 0 -4-4h-3a4 4 0 0 0 -4 4 3 3 0 0 1 -3 3h-2c-6.026 0-11.354-4.567-11.945-10h4.945a8.009 8.009 0 0 0 8 8zm-7-10h-7a4.214 4.214 0 0 1 -4-4h2v2h2v-2h6v2h2v-2h2c0 1.991-.928 4-3 4zm17-18h-3a7.737 7.737 0 0 0 -8 8v2a2 2 0 0 1 -2 2h-16a2 2 0 0 1 -2-2v-2a7.737 7.737 0 0 0 -8-8h-3v-14h11a8.7 8.7 0 0 1 9 9 1 1 0 0 0 2 0 8.7 8.7 0 0 1 9-9h11zm6-2a1 1 0 0 1 0 2h-4v-2zm0-8a1 1 0 0 1 0 2h-4v-2zm-5-11a1 1 0 0 0 -1 1v4h-2v-5a2 2 0 0 1 2-2h6a1 1 0 0 1 0 2z"/>
<path d="m32 28a8.009 8.009 0 0 0 -8 8 4 4 0 0 0 4 4h8a4 4 0 0 0 4-4 8.009 8.009 0 0 0 -8-8zm-4 10a2 2 0 0 1 -2-2 5.983 5.983 0 0 1 2-4.46zm6 0h-4v-7.65a5.889 5.889 0 0 1 4 0zm2 0v-6.46a5.983 5.983 0 0 1 2 4.46 2 2 0 0 1 -2 2z"/>
<path d="m27 26h2a8.009 8.009 0 0 0 -8-8h-8v2h8a6.006 6.006 0 0 1 6 6z"/>
<path d="m35 26h2a6.006 6.006 0 0 1 6-6h8v-2h-8a8.009 8.009 0 0 0 -8 8z"/>
<path d="m25 26a3.957 3.957 0 0 0 -4-4h-8v2h8a1.955 1.955 0 0 1 2 2v3h2z"/>
<path d="m39 26v3h2v-3a1.955 1.955 0 0 1 2-2h8v-2h-8a3.957 3.957 0 0 0 -4 4z"/>
<path d="m19 26h2v2h-2z"/>
<path d="m43 26h2v2h-2z"/>
</g>

<g *ngIf="alien.type.toLowerCase()==='brain'" attr.transform="translate({{alien.flipped < 0 ? 64 : 0}}, 0) scale({{alien.flipped}}, 1)">
<path d="m39 27h1a6 6 0 0 0 6-6v-6h4a2.286 2.286 0 0 0 1.973-2c.2-1.253-.758-2-1.973-2h-4a4 4 0 0 0 -4 4v6a2 2 0 0 1 -4 0v-14h3a2 2 0 0 0 0-4h-4a3 3 0 0 0 -3 3v15a2 2 0 0 1 -4 0v-16a2.286 2.286 0 0 0 -2-1.973c-1.253-.2-2 .758-2 1.973v16a2 2 0 0 1 -4 0v-15a3 3 0 0 0 -3-3h-4.893a2.4 2.4 0 0 0 -2.08 2c-.2 1.253.758 2 1.973 2h4v14a6 6 0 0 0 6 6 13 13 0 0 0 -13 13v1a20 20 0 0 0 20 20h2a20 20 0 0 0 20-20 14.041 14.041 0 0 0 -14-14z" fill="#b459a1"/>
<path d="m38 51h-12c-6 0-8-6-8-6s2-6 8-6h12c6 0 8 6 8 6s-2 6-8 6z" fill="#ffd782"/>
<rect fill="#394d5c" height="12" rx="6" width="12" x="26" y="39"/><g fill="#5e2c81">
<path d="m18 14h4v4h-4z"/><path d="m26 9h4v4h-4z"/><path d="m34 15h4v4h-4z"/>
<path d="m42 17h4v4h-4z"/></g><path d="m31 30h2v2h-2z"/><path d="m27 30h2v2h-2z"/>
<path d="m35 30h2v2h-2z"/><path d="m29 34h2v2h-2z"/><path d="m33 34h2v2h-2z"/>
<path d="m10 40v1a21.024 21.024 0 0 0 21 21h2a21.024 21.024 0 0 0 21-21 15.028 15.028 0 0 0 -10.111-14.183 7 7 0 0 0 3.111-5.817v-5h3a3.263 3.263 0 0 0 2.959-2.84 2.608 2.608 0 0 0 -.557-2.149 3.112 3.112 0 0 0 -2.402-1.011h-4a5.006 5.006 0 0 0 -5 5v6a1 1 0 0 1 -2 0v-13h2a3 3 0 0 0 0-6h-4a4 4 0 0 0 -4 4v15a1 1 0 0 1 -2 0v-16a3.266 3.266 0 0 0 -2.839-2.96 2.613 2.613 0 0 0 -2.15.557 3.12 3.12 0 0 0 -1.011 2.403v16a1 1 0 0 1 -2 0v-15a4 4 0 0 0 -4-4h-4.893a3.4 3.4 0 0 0 -3.066 2.84 2.608 2.608 0 0 0 .559 2.149 3.112 3.112 0 0 0 2.4 1.011h3v13a7 7 0 0 0 2.844 5.63 14.024 14.024 0 0 0 -9.844 13.37zm33-25a3 3 0 0 1 3-3h4a1.162 1.162 0 0 1 .879.307.592.592 0 0 1 .107.532c-.096.586-.586 1.161-.986 1.161h-4a1 1 0 0 0 -1 1v1h-2zm0 3h2v2h-2zm-8-12a2 2 0 0 1 2-2h4a1 1 0 0 1 0 2h-3a1 1 0 0 0 -1 1v7h-2zm0 10h2v2h-2zm-8-11a1.164 1.164 0 0 1 .307-.879.573.573 0 0 1 .532-.106c.586.094 1.161.585 1.161.985v3h-2zm0 5h2v2h-2zm-9-4h-4a1.162 1.162 0 0 1 -.879-.307.592.592 0 0 1 -.107-.532c.092-.561.654-1.161 1.093-1.161h4.893a2 2 0 0 1 2 2v7h-2v-6a1 1 0 0 0 -1-1zm3 9v2h-2v-2zm3 13h12v-2h-12a5.006 5.006 0 0 1 -5-5v-2h2v2a3 3 0 0 0 6 0v-7h2v7a3 3 0 0 0 6 0v-1h2v1a2.993 2.993 0 0 0 5.816 1h2.084a5.009 5.009 0 0 1 -4.9 4h-1a1 1 0 0 0 0 2 13.015 13.015 0 0 1 13 13 19.021 19.021 0 0 1 -19 19h-2a19.021 19.021 0 0 1 -19-19v-1a12.013 12.013 0 0 1 12-12z"/>
<path d="m26 52h12c5.316 0 8.178-4.372 8.949-6.684a1 1 0 0 0 0-.632c-.771-2.312-3.633-6.684-8.949-6.684h-12c-5.316 0-8.178 4.372-8.949 6.684a1 1 0 0 0 0 .632c.771 2.312 3.633 6.684 8.949 6.684zm12-12c4.5 0 6.448 3.846 6.929 5-.483 1.157-2.429 5-6.929 5h-1.111a6.977 6.977 0 0 0 0-10zm-6 0a5 5 0 1 1 -5 5 5.006 5.006 0 0 1 5-5zm-6 0h1.111a6.977 6.977 0 0 0 0 10h-1.111c-4.5 0-6.448-3.846-6.929-5 .483-1.157 2.429-5 6.929-5z"/>
<path d="m31 43h2v4h-2z"/>
<path d="m46.192 35.589a9.589 9.589 0 0 1 1.808 5.428l2-.034a11.611 11.611 0 0 0 -2.192-6.572 11.744 11.744 0 0 0 -6.57-4.383l-.476 1.944a9.7 9.7 0 0 1 5.43 3.617z"/>
<path d="m28 55h8v2h-8z"/>
</g>
</svg>
